<?xml version="1.0" encoding="UTF-8" standalone="no"?>
<svg
   width="27"
   height="40"
   viewBox="0 0 27 40"
   fill="none"
   version="1.1"
   id="svg34"
   sodipodi:docname="favicon.svg"
   inkscape:version="1.1.2 (0a00cf5339, 2022-02-04)"
   xmlns:inkscape="http://www.inkscape.org/namespaces/inkscape"
   xmlns:sodipodi="http://sodipodi.sourceforge.net/DTD/sodipodi-0.dtd"
   xmlns="http://www.w3.org/2000/svg"
   xmlns:svg="http://www.w3.org/2000/svg">
  <defs
     id="defs38" />
  <sodipodi:namedview
     id="namedview36"
     pagecolor="#505050"
     bordercolor="#eeeeee"
     borderopacity="1"
     inkscape:pageshadow="0"
     inkscape:pageopacity="0"
     inkscape:pagecheckerboard="0"
     showgrid="false"
     inkscape:zoom="5.7358838"
     inkscape:cx="35.304062"
     inkscape:cy="6.1019367"
     inkscape:window-width="1920"
     inkscape:window-height="1043"
     inkscape:window-x="0"
     inkscape:window-y="0"
     inkscape:window-maximized="1"
     inkscape:current-layer="svg34" />
  <g
     id="g257"
     transform="translate(0,-0.30842324)">
    <path
       d="m 25.435387,5.5566631 c -0.3243,-0.49664 -0.7981,-0.5109 -1.338,-0.52716 -0.0612,-0.00184 -0.1232,-0.0037 -0.1859,-0.0063 -0.0478,-0.0022 -0.1005,-0.00135 -0.1556,-4.7e-4 -0.219,0.00352 -0.4751,0.00763 -0.6041,-0.17634 -0.1496,-0.21329 -0.1354,-0.62549 -0.1237,-0.96577 0.0037,-0.10753 0.0071,-0.20794 0.0051,-0.29255 -0.021,-0.79048 -0.0649,-1.630172 -0.37,-1.91088 -0.2301,-0.2106102 -0.9185,-0.181433 -1.5533,-0.1545246 -0.2058,0.00872 -0.406,0.017208 -0.5831,0.017208 H 7.0138477 c -0.27207,0 -0.55727,-0.022154 -0.83749,-0.043922 -0.54602,-0.042415 -1.07314,-0.083362 -1.44747,0.043922 -0.54325,0.185628 -0.58004,1.161067 -0.61467,2.079587 l -0.0019,0.04942 c -0.02908,0.75827 -0.217,1.34338 -0.83981,1.28445 -0.72436,-0.06745 -1.445153,-0.08871 -1.772663,0.56688 -0.3867969,0.77567 -0.307024,1.58764 -0.16414,3.04198 0.02041,0.20775 0.04211,0.4286 0.06392,0.66433 H 25.644258 c 0.0139,-0.1723 0.0286,-0.34239 0.0432,-0.50972 0.1135,-1.30847 0.2124,-2.44851 -0.2521,-3.16014 z"
       fill="#8047f8"
       id="path2" />
    <path
       fill-rule="evenodd"
       clip-rule="evenodd"
       d="m 3.2171685,10.668943 c 0.37865,5.12483 0.75317,10.25543 1.1277,15.38623 l 2.3e-4,0.0031 c 0.20335,2.7858 0.40671,5.5716 0.61073,8.3566 h 0.77359 c 0.05271,0.4359 0.11303,0.9741 0.17662,1.5415 0.12909,1.1518 0.2717,2.4243 0.3916,3.2062 h 0.08556 c 0.78797,-0.2883 6.2352995,-2.6167 6.2376995,-11.8865 -0.001,-0.0264 -10e-5,-0.0529 0.0026,-0.0791 h -1.3458 c -0.0651,-6e-4 -0.1283,-0.0224 -0.1797,-0.0619 -0.05143,-0.0395 -0.08829,-0.0947 -0.10493,-0.157 -0.13114,-0.3239 -0.23689,-0.6574 -0.31629,-0.9974 -0.7917095,0.4472 -1.4204195,1.13 -1.7965195,1.9511 -0.35702,-0.841 -0.40375,-1.7792 -0.13203,-2.6508 0.27173,-0.8716 0.84463,-1.621 1.6185895,-2.1174 0.01,-2.705 1.02278,-5.3125 2.84658,-7.3289 l 0.0285,-0.0251 c 0.053,-0.0458 0.1209,-0.0713 0.1913,-0.0719 0.0407,4e-4 0.0809,0.0091 0.118,0.0256 0.0376,0.0167 0.0712,0.041 0.0987,0.0714 1.8452,2.0192 2.8526,4.6517 2.8213,7.3727 0.7884,0.4825 1.373,1.2314 1.6452,2.1077 0.2722,0.8763 0.2136,1.8205 -0.1649,2.6573 -0.3741,-0.8224 -1.0034,-1.5058 -1.7966,-1.951 -0.0484,0.3295 -0.1377,0.6519 -0.2657,0.9599 -0.0442,0.1313 -0.1328,0.2157 -0.2214,0.2157 h -1.4352 c 0.0023,0.0157 0.0039,0.0315 0.0048,0.0474 l 6e-4,0.0036 v 0.0077 c 5e-4,0.0136 5e-4,0.0273 0,0.041 0.0197,9.5359 5.8113,11.7004 6.2995,11.8659 h 0.167 c 0.0426,-0.7511 0.1814,-1.7875 0.3167,-2.7979 0.0932,-0.6962 0.1848,-1.3802 0.2421,-1.9498 h 0.7825 c 0.2505,-3.5079 0.5081,-7.006 0.7657,-10.5042 l 2e-4,-0.0019 10e-5,-0.001 c 0.3295,-4.4746 0.659,-8.9493 0.9736,-13.4448 H 3.2672785 c -0.05906,0.01154 -0.05503,0.10815 -0.05011,0.20597 z m 10.2160295,5.06873 h -0.0015 0.0031 z"
       fill="#8047f8"
       id="path4" />
  </g>
</svg>
